# xmcd
#
# Track frame offsets:
#	150
#	41612
#	71616
#	112848
#	147974
#	192092
#	230225
#	246962
#
# Disc length: 3738 seconds
#
# Revision: 1
# Processed by: cddbd v1.5.2PL0 Copyright (c) Steve Scherf et al.
# Submitted via: audiograbber 1.83.01
#
DISCID=6f0e9808
DTITLE=Grateful Dead - 82-04-17 Hartford Civic Centre, Hartford CT
DYEAR=1900
DGENRE=
TTITLE0=Drums
TTITLE1=Spanish Jam
TTITLE2=Uncle John's Band
TTITLE3=Not Fade Away
TTITLE4=Wharf Rat
TTITLE5=Around and Around
TTITLE6=One More Saturday Night
TTITLE7=It's All Over Now, Baby Blue
EXTD=
EXTT0=
EXTT1=
EXTT2=
EXTT3=
EXTT4=
EXTT5=
EXTT6=
EXTT7=
PLAYORDER=
